<?xml version="1.0" encoding="utf-8"?>
<!-- Generator: Adobe Illustrator 16.0.0, SVG Export Plug-In . SVG Version: 6.00 Build 0)  -->
<!DOCTYPE svg PUBLIC "-//W3C//DTD SVG 1.1//EN" "http://www.w3.org/Graphics/SVG/1.1/DTD/svg11.dtd">
<svg version="1.1" id="Layer_1" xmlns="http://www.w3.org/2000/svg" xmlns:xlink="http://www.w3.org/1999/xlink" x="0px" y="0px"
	 width="36.48px" height="26.98px" viewBox="0 0 36.48 26.98" enable-background="new 0 0 36.48 26.98" xml:space="preserve">
<path fill="#1A449B" d="M9.558,26.98c4.852,0,8.318-3.078,8.318-7.676c0-3.154-1.277-4.826-2.59-5.852
	c-2.154-1.748-4.27-1.862-4.27-3.762c0-2.28,1.715-4.256,6.749-4.826V0C6.129,0.57,0,6.422,0,16.378
	C0,23.56,4.487,26.98,9.558,26.98 M28.164,26.98c4.852,0,8.316-3.078,8.316-7.676c0-3.154-1.275-4.826-2.59-5.852
	c-2.152-1.748-4.268-1.862-4.268-3.762c0-2.28,1.715-4.256,6.748-4.826V0C24.734,0.57,18.605,6.422,18.605,16.378
	C18.605,23.56,23.091,26.98,28.164,26.98"/>
</svg>
